<svg xmlns="http://www.w3.org/2000/svg" viewBox="0 0 455.6 65"><title>資產 1</title><g id="圖層_2" data-name="圖層 2"><g id="car_logo" data-name="car logo"><path d="M34.1,14.7,25.6,0,17.2,14.7l8.4,14.8,8.5-14.8Z" fill="#bcbcbc" fill-rule="evenodd"/><path d="M0,44.2H17.1l8.5-14.7H8.9L0,44.2Z" fill="#bcbcbc" fill-rule="evenodd"/><path d="M42.6,29.5h-17l8.7,14.7H51.2Z" fill="#bcbcbc" fill-rule="evenodd"/><path d="M9.9,47.7H8.2l-1.1,3L5.8,47.6H4.3v7.1H5.6V50.1l1.5,3.4,1.4-3.4v4.6H9.9v-7Zm2.3,7v-7H10.8v7Zm.5-6h1.4v6h1.4v-6h1.3v-1H12.7Zm21.2-1H32.6v7h1.3Zm10.8-.1H43.3v2.8H40.8V47.7H39.5v7h1.3V51.5h2.5v3.2h1.4Zm2.3.1H45.7v7H47Zm-26.1.8a2,2,0,0,0-1.8-.9,2,2,0,0,0-1.9.8,1.8,1.8,0,0,0,.2,2.3l.7.5c.6.2.8.5,1.3.7a.6.6,0,0,1,.5.6c.2.6,0,.9-.5,1a1.2,1.2,0,0,1-1.2-.3,2.4,2.4,0,0,1-.2-.8H16.7a2.3,2.3,0,0,0,.2,1.1,2,2,0,0,0,1.4,1.3,2.9,2.9,0,0,0,2.1-.5,1.8,1.8,0,0,0,.8-2,2.9,2.9,0,0,0-1.1-1.4,4,4,0,0,1-1.2-.7c-.6-.2-.7-.4-.7-.8s.1-.7.7-.7.9.3,1,1.1h1.2a2.7,2.7,0,0,0-.2-1.3Zm5.5,3.9V47.6H25.1v4.9A1,1,0,0,1,24,53.6c-.7,0-.9-.4-.9-1.1V47.6H21.8v4.8c-.1,1.6.6,2.4,2.2,2.4s2.4-.7,2.4-2.4Zm3.1-4.7H27.3v7.1h2.8c.7,0,1.2-.2,1.4-.8a1.7,1.7,0,0,0,.1-2.2c-.1-.3-.3-.5-.8-.7a1.8,1.8,0,0,0,.9-1.1,1.1,1.1,0,0,0-.3-1.5,1.9,1.9,0,0,0-1.9-.7Zm-.9,1h.9c.5,0,.8.3.8.9s-.1.7-.5.8h-.7v1h.5c.7.2,1,.5,1,1.1s-.3.9-1,.9h-1V48.7Zm-17.9,9v7.1H12V60.3l1.5,3.2,1.4-3.2v4.5h1.4V57.7H14.7l-1.2,3.2-1.3-3.2Zm15.2,1.1V57.7H21.7v1.1h1.4v5.9h1.4V58.8Zm6.9.1h.7c.8,0,1.2.3,1.2,1s-.5,1.2-1.4,1.2L35,64.7h1.5l-1.6-2.9h.2a1.9,1.9,0,0,0,1-2c-.1-1.4-1-2.1-2.7-2H31.5v7h1.3V58.9Z" fill="#bcbcbc" fill-rule="evenodd"/><path d="M17.2,59a4.4,4.4,0,0,0-.4,3.7,2.6,2.6,0,0,0,2.6,2.1,2.3,2.3,0,0,0,2.4-2,3.8,3.8,0,0,0-.1-3.7,2.5,2.5,0,0,0-4.5-.1Zm1,3.6a3.2,3.2,0,0,1,0-2.7,1.1,1.1,0,0,1,1.3-1c.6,0,1,.3,1.1,1.1a3.8,3.8,0,0,1-.1,3,1.3,1.3,0,0,1-1.1.8Q18.5,63.8,18.2,62.6Zm7.4.2c.4,1.4,1.2,2.1,2.5,2A2.5,2.5,0,0,0,30.7,63a4.5,4.5,0,0,0-.2-3.9c-.6-1-1.3-1.5-2.1-1.4A2.6,2.6,0,0,0,26,59a4.7,4.7,0,0,0-.4,3.8ZM27,59.9a1.1,1.1,0,0,1,1.2-.9c.6-.1,1.1.3,1.3,1.2a3.9,3.9,0,0,1-.1,2.8,1.4,1.4,0,0,1-1.3.8A1.4,1.4,0,0,1,27,62.7a3.4,3.4,0,0,1,0-2.8ZM38.7,48.6a1.7,1.7,0,0,0-1.8-.9,1.8,1.8,0,0,0-1.9.8,1.7,1.7,0,0,0,.1,2.2,2,2,0,0,0,.7.6l1.3.6c.4.2.6.4.6.7a.8.8,0,0,1-.6,1,1,1,0,0,1-1.1-.4,1.1,1.1,0,0,1-.3-.7H34.4a3.8,3.8,0,0,0,.3,1,1.7,1.7,0,0,0,1.4,1.3,2.4,2.4,0,0,0,2.1-.4,1.8,1.8,0,0,0,.8-1.9,2.1,2.1,0,0,0-1.2-1.4l-1.1-.7c-.6-.3-.7-.6-.7-.9s.1-.7.7-.8.9.3,1,1.2h1.2a2.5,2.5,0,0,0-.2-1.3Zm-1.9,9.9a1.8,1.8,0,0,0,.2,2.4l.6.4,1.3.7c.3.1.6.4.6.6a.9.9,0,0,1-.6,1.2c-.5,0-.8,0-1.1-.5a1.1,1.1,0,0,1-.3-.8H36.2a7.4,7.4,0,0,0,.2,1.2,2.4,2.4,0,0,0,1.4,1.2,2.8,2.8,0,0,0,2.1-.4,1.9,1.9,0,0,0,.9-2,2.6,2.6,0,0,0-1.2-1.4l-1.2-.7c-.6-.2-.7-.5-.7-.8s.1-.7.7-.7,1.1.2,1.1,1h1.1a1.3,1.3,0,0,0-.2-1.2,1.8,1.8,0,0,0-1.7-1,1.8,1.8,0,0,0-1.9.8Z" fill="#bcbcbc" fill-rule="evenodd"/><path d="M203.6,38.2h1.1l.7,1.9.2.5a.8.8,0,0,1,.1-.4l.8-2h1.1v3.2h-.7V38.9c0,.1-.1.1-.1.2l-.9,2.3h-.7l-.9-2.3v-.2c.1.1.1.1.1.2v2.3h-.7V38.2Zm6.9.5a1.1,1.1,0,0,1,0,2.2.8.8,0,0,1-.8-.4,1,1,0,0,1-.2-.7,1,1,0,0,1,1-1.1Zm-.1-.6a1.6,1.6,0,0,0-1.7,1.7,1.7,1.7,0,0,0,1.8,1.7,1.7,1.7,0,0,0,1.9-1.7,1.5,1.5,0,0,0-.4-1.1,1.8,1.8,0,0,0-1.6-.6Zm2.7.1h3v.6H215v2.6h-.8V38.8h-1.1Zm5.7.5a1,1,0,0,1,1,1.1,1,1,0,0,1-1,1.1,1.1,1.1,0,0,1-.9-.4,2,2,0,0,1-.2-.7A1,1,0,0,1,218.8,38.7Zm-.1-.6a1.7,1.7,0,0,0-1.8,1.7,1.7,1.7,0,0,0,1.9,1.7,1.6,1.6,0,0,0,1.8-1.7,1.6,1.6,0,0,0-1.9-1.7Zm3.9.7h1.2c.3,0,.4,0,.4.1a.4.4,0,0,1,.1.3c0,.3-.3.3-.5.3h-1.2v-.7Zm-.7,2.6h.7V40.1h.9l.8,1.3h.9l-.9-1.3.4-.2a.8.8,0,0,0,.3-.8,1,1,0,0,0-.2-.6c-.2-.3-.5-.3-.9-.3h-2v3.2Zm10.3-1.1c0,.2-.1.4-.4.7a1.9,1.9,0,0,1-1.4.5,1.6,1.6,0,0,1-1.8-1.7,1.7,1.7,0,0,1,1.9-1.7,1.9,1.9,0,0,1,1.7,1h-.8a1.3,1.3,0,0,0-.9-.5,1.1,1.1,0,1,0,0,2.2.9.9,0,0,0,.9-.6Zm2.9-1.6a1.1,1.1,0,1,1-.9,1.8,2,2,0,0,1-.2-.7,1.1,1.1,0,0,1,1.1-1.1Zm-.1-.6a1.6,1.6,0,0,0-1.7,1.7,1.6,1.6,0,0,0,1.8,1.7,1.7,1.7,0,0,0,1.9-1.7,2.1,2.1,0,0,0-.4-1.1,1.8,1.8,0,0,0-1.6-.6Zm3.1.1h1.1l.8,1.9a.7.7,0,0,0,.1.5c0-.1.1-.2.2-.4l.7-2h1.1v3.2h-.7V38.9c0,.1,0,.1-.1.2l-.9,2.3h-.7l-.8-2.3c-.1-.1-.1-.1-.1-.2v2.5h-.7V38.2Zm6.3.6h1.3c.1.1.1.2.1.4s-.3.4-.5.4h-.9v-.8Zm-.8,2.6h.8V40.2h1a1,1,0,0,0,1-.4.8.8,0,0,0,.2-.6c0-.2-.1-.4-.1-.6a1.1,1.1,0,0,0-1-.4h-1.9Zm5.8-1.2h-1l.4-1h.1v-.2c0,.1.1.1.1.2h0Zm-2.3,1.2h.8l.2-.6h1.6l.3.6h.8l-1.4-3.2h-.9l-1.4,3.2Zm4.8-3.2h.7l1.5,1.8.4.5V38.2h.7v3.2h-.8L253,39.6l-.4-.5v2.3h-.7Zm4.4,0h.9l.8,1.2c.1.1.1.1.1.2s.1-.1.1-.2l.8-1.2h.9l-1.4,2v1.2h-.7V40.2l-1.5-2ZM242.4,26.7c-.8-1.6-.5-1.4-2.1-1.5h-1.9c-1.5,0-1.3-.1-1.8,1l-3.7,8.3h-.1c-.2.4,0,.4.3.4h2.3l.4-.2.7-1.7h5.8l.7,1.7c0,.2.2.2.3.2h2.4c.4,0,.5.1.3-.2s-3.2-7.1-3.6-8.1Zm-5,4.3c.7-1.7,1.5-3.4,1.5-3.5s.1-.1.2-.1h.6c.1,0,.2,0,.2.2l1.4,3.4Zm-31.2-5.9h-2.4c-.2,0-.2.1-.2.3v9.2c0,.3,0,.3.3.3h2.2c.3,0,.4,0,.4-.3V25.4A.3.3,0,0,0,206.2,25.1Zm-4.8.1h-2a.3.3,0,0,0-.3.3v7.4L194.7,26c-.6-.9-.8-.8-2.5-.8h-2.3a.3.3,0,0,0-.3.3v9.2c0,.3.1.3.3.3h2c.3,0,.3,0,.3-.3V27.5l4.3,6.7c.5.8.7.8,2.2.8h2.7c.2,0,.3,0,.3-.3V25.5a.3.3,0,0,0-.3-.3Zm57.8,0h-1.9c-.3,0-.3.1-.3.3v7.4L252.6,26c-.6-.9-.9-.8-2.6-.8h-2.2c-.3,0-.3.1-.3.3v9.2c0,.3,0,.3.3.3h1.9c.3,0,.3,0,.3-.3V27.5l4.4,6.7c.5.8.6.8,2.2.8h2.6c.3,0,.3,0,.3-.3V25.5c0-.2,0-.3-.3-.3ZM216.1,29l-4.3-.4c-.3-.1-.5-.3-.5-.5v-.4c.1-.3.2-.4.5-.4h7c.2,0,.3,0,.3-.3V25.4c0-.2-.1-.2-.3-.2h-7.1c-1.8,0-2.9.6-3.2,2v1.9c.1.8.6,1.7,2.8,1.9l4.9.4c.4.1.4.3.4.5v.6c0,.3-.1.4-.4.4h-7.4c-.2,0-.3,0-.3.3v1.5c0,.3.1.3.3.3h7.3c1.8,0,3-.3,3.3-1.8a4.5,4.5,0,0,0,.1-1.1v-1c-.4-1.7-1.7-2-3.4-2.1Zm12.5,0-4.3-.4a.5.5,0,0,1-.4-.5v-.4c0-.3.1-.4.5-.4h6.9c.2,0,.3,0,.3-.3V25.4c0-.2-.1-.2-.3-.2h-7.1c-1.8,0-2.8.6-3.1,2a3.4,3.4,0,0,0-.1,1,2.8,2.8,0,0,0,.1.9c.1.8.6,1.7,2.7,1.9l4.9.4a.8.8,0,0,1,.5.5v.6c-.1.3-.2.4-.5.4h-7.3c-.3,0-.3,0-.3.3v1.5c0,.3,0,.3.3.3h7.2c1.9,0,3-.3,3.3-1.8a4.5,4.5,0,0,0,.1-1.1v-1c-.4-1.7-1.6-2-3.4-2.1Z" fill="#bcbcbc" fill-rule="evenodd"/><path d="M124.8,7.1c-14.3,0-25.9,7.6-25.9,16.9s11.6,16.9,25.9,16.9,26-7.6,26-16.9S139.2,7.1,124.8,7.1Zm0,2c8.4,0,15.2,2.4,15.2,5.5s-3.8,4.1-9.2,5h0c-.9-5.9-3.2-10.1-6-10.1s-5.1,4.2-6,10.1h0c-5.4-.9-9.1-2.8-9.1-5S116.5,9.1,124.8,9.1Zm3.6,10.8h-7.2c.6-3.8,2-6.4,3.6-6.4S127.8,16.1,128.4,19.9Zm-5.2,19.3c-11.7-.6-20.8-7.5-20.8-15.8a12.2,12.2,0,0,1,2.9-7.8h0c.2,3.8,5.6,7.1,13.2,8.3v.7c0,7,2,12.9,4.7,14.6Zm1.6-5.3c-2.1,0-3.8-4.3-3.9-9.7h0a50.8,50.8,0,0,0,7.8,0h0C128.6,29.6,126.9,33.9,124.8,33.9Zm1.7,5.3h-.1c2.8-1.7,4.8-7.6,4.8-14.6v-.7c7.5-1.2,13-4.5,13.1-8.3h.1a12.7,12.7,0,0,1,2.9,7.8C147.3,31.7,138.1,38.6,126.5,39.2Z" fill="#bcbcbc"/><path d="M131.1,46a6.3,6.3,0,0,0-6.3,6.3,6.3,6.3,0,0,0,12.6,0A6.3,6.3,0,0,0,131.1,46Zm0,10.3a3.7,3.7,0,0,1-3.5-4,3.7,3.7,0,0,1,3.5-4,4,4,0,0,1,0,8Z" fill="#bcbcbc" fill-rule="evenodd"/><polygon points="148.2 46.5 138.2 46.5 138.2 48.7 141.9 48.7 141.9 58.4 144.5 58.4 144.5 48.7 148.2 48.7 148.2 46.5" fill="#bcbcbc" fill-rule="evenodd"/><path d="M155.5,46.5h-3.3l-4.9,11.9h3.1l1.1-2.7h4.8l1,2.7h3.1Zm-1.6,7.2h-1.7l1.7-4.4h0l1.7,4.4Z" fill="#bcbcbc" fill-rule="evenodd"/><polygon points="89.2 48.7 92.9 48.7 92.9 58.4 95.6 58.4 95.6 48.7 99.3 48.7 99.3 46.5 89.2 46.5 89.2 48.7" fill="#bcbcbc" fill-rule="evenodd"/><path d="M106.3,46a6.3,6.3,0,0,0-6.3,6.3,6.3,6.3,0,0,0,6.3,6.3,6.3,6.3,0,0,0,6.3-6.3A6.4,6.4,0,0,0,106.3,46Zm0,10.3a4,4,0,1,1,3.5-4A3.8,3.8,0,0,1,106.3,56.3Z" fill="#bcbcbc" fill-rule="evenodd"/><polygon points="118.7 51.5 115.8 46.5 112.7 46.5 117.3 53.8 117.3 58.4 118.7 58.4 120 58.4 120 53.8 124.6 46.5 121.5 46.5 118.7 51.5" fill="#bcbcbc" fill-rule="evenodd"/><path d="M423.8,45.2c17.5,0,31.8-5.4,31.8-12.1s-14.3-12-31.8-12S392,26.5,392,33.1s14.2,12.1,31.8,12.1Z" fill="#bcbcbc" fill-rule="evenodd"/><path d="M423.8,43.9c-16.9,0-30.6-4.8-30.6-10.8s13.7-10.8,30.6-10.8,30.6,4.9,30.6,10.8S440.7,43.9,423.8,43.9Z" fill="#fff" fill-rule="evenodd"/><path d="M423.8,43.1c16.3,0,29.6-4.5,29.6-10s-13.3-9.9-29.6-9.9-29.6,4.5-29.6,9.9,13.2,10,29.6,10Z" fill="#bcbcbc" fill-rule="evenodd"/><path d="M431.5,35.1c1.4-1.3,2.2-2.7,4.2-2.6a1.8,1.8,0,0,1,1.7,1.4l2.7-4.5h1.6l-4.4,7.8a1.1,1.1,0,0,0-.3.7c.1.4.6.3.4.3s2.5-1.8,2.9-2.2.2-.3.3-.3.2.1.2.3a1.5,1.5,0,0,1-.3.5c-.8,1.1-2.2,2.6-3.7,2.7s-1.1-.3-1.2-.9a4.8,4.8,0,0,1-2.7.8,1.6,1.6,0,0,1-1.6-1.1,1.9,1.9,0,0,1-.1-1.5,3.8,3.8,0,0,1-1.9.3c-.8,0-1.3-.4-1.6-1.4l-2,3.7h-1.8l2.2-3.8a4.9,4.9,0,0,0,.6-1.3c0-.3-.1-.5-.4-.5a2.2,2.2,0,0,0-1.2.7,16,16,0,0,0-2,2.5c-.8,1.2-2.2,2.5-3.7,2.5a2.2,2.2,0,0,1-2.3-1.7s-.1.3-1,.8-.3.2-.4.1a.5.5,0,0,1-.3-.5l.6-.4c.8-.5.9-1,.9-1a10,10,0,0,1,.8-1.4,3.9,3.9,0,0,1,3.4-2.6c.3,0,.4.2.4.3a.2.2,0,0,1,.1.3,4,4,0,0,0-2.6,1.6,6.1,6.1,0,0,0-.7,1.7c-.1,1,.3,1.6,1,1.7s2.2-.6,2.9-2a4.3,4.3,0,0,0,.4-1.7,1.9,1.9,0,0,0-.5-1.2c0-.4.2-.6.5-.6s.2,0,.2.1a2.4,2.4,0,0,1,.7,1.8,1.3,1.3,0,0,1-.1.6,9.9,9.9,0,0,1,2.8-2.7h.5a1.2,1.2,0,0,1,1.4,1.4c.8-1,1.4-1.3,2.1-1.3a1.1,1.1,0,0,1,1.1,1.1,1.3,1.3,0,0,1-1.1,1.2c-.6,0-.9-.3-1.1-.9a1.3,1.3,0,0,0-.7,1,1,1,0,0,0,1.1,1.2,2.5,2.5,0,0,0,2-.9Zm1.3-8.8c0,.6-2.3,1.9-4.3,1.9s-6.2-1.5-7.6-1.8a19.2,19.2,0,0,0-4.2-.7c-3.9,0-5.7,1.7-5.6,3.3s.5,1,1.3.9a3.1,3.1,0,0,0,2.2-1.6h.3c.2.1.1.2.1.2a3.9,3.9,0,0,1-3.5,3,2.1,2.1,0,0,1-1.9-2.2c0-2,2.1-4,7.2-4a12.7,12.7,0,0,1,3.2.3,55.4,55.4,0,0,0,7.6.8,19.6,19.6,0,0,0,3.4-.1l1.3-.2c.5,0,.5.1.5.3Z" fill="#fff" fill-rule="evenodd"/><path d="M435.8,33.4c-.7-.1-1.6.6-2.4,1.5a5.8,5.8,0,0,0-.8,1.8,1.4,1.4,0,0,0,.3,1.2c.1.1,1,.5,2.2-.8a7.6,7.6,0,0,0,1.4-1.8h-.2C436.8,34.4,436.7,33.5,435.8,33.4Z" fill="#bcbcbc" fill-rule="evenodd"/><path d="M420.8,31c0,.2.3.4.6.4s-.1.4-.2.3a.9.9,0,0,1-.8-.5l-3.3.4c-4.1,6.6-5.3,7.7-7.8,7.7a3.2,3.2,0,0,1-3.4-3.3,3.5,3.5,0,0,1,2.9-3.3c.2,0,.3.1.3.2s-.1.2-.3.3a3.1,3.1,0,0,0-1.5,2.3,1.7,1.7,0,0,0,1.3,1.7h.6c2,0,4.2-2.2,6.7-5.7a7.8,7.8,0,0,0-2.5.7c-.2.2-.3.1-.4-.1l.2-.2c.6-.8,2.6-.9,3.1-1,1.8-2.8,4.2-4.6,4.7-4.6s.2.1.2.3-.3.3-.3.4a10.7,10.7,0,0,0-3.4,3.8l2.7-.3a2,2,0,0,1-.1-.5c.1-.9.6-1.4,1.2-1.3a.8.8,0,0,1,.7.7,1.7,1.7,0,0,1-.6,1.1l-.6.4Z" fill="#fff" fill-rule="evenodd"/><path d="M420.7,30.6s.2,0,.5-.4a1.5,1.5,0,0,0,.3-.7c0-.1-.1-.3-.2-.3a.9.9,0,0,0-.6.6,1.1,1.1,0,0,0,0,.8Z" fill="#bcbcbc" fill-rule="evenodd"/><path d="M339.9,50H332v1.5h1.5v4.6H332v1.6h7.9c2.1,0,4-.9,4-4S341.8,50,339.9,50Zm-1.1,6.1h-2.2V51.5h2.2a2.1,2.1,0,0,1,1.9,2.3C340.7,55.2,340,56.1,338.8,56.1Z" fill="#bcbcbc"/><path d="M311.1,49.7c-1.4,0-6,.3-6,4.1s4.5,4.1,6,4.1,5.9-.2,5.9-4.1S312.5,49.7,311.1,49.7Zm0,6.7a2.4,2.4,0,0,1-2.6-2.6,2.3,2.3,0,0,1,2.6-2.5,2.3,2.3,0,0,1,2.6,2.5A2.4,2.4,0,0,1,311.1,56.4Z" fill="#bcbcbc"/><polygon points="298.5 51.5 300 51.5 300 53.1 295.3 53.1 295.3 51.5 296.8 51.5 296.8 50 290.8 50 290.8 51.5 292.3 51.5 292.3 56.1 290.8 56.1 290.8 57.7 296.8 57.7 296.8 56.1 295.3 56.1 295.3 54.6 300 54.6 300 56.1 298.5 56.1 298.5 57.7 304.5 57.7 304.5 56.1 303 56.1 303 51.5 304.5 51.5 304.5 50 298.5 50 298.5 51.5" fill="#bcbcbc"/><polygon points="326.5 51.5 328 51.5 328 55.7 323.7 50 317.7 50 317.7 51.5 319.2 51.5 319.2 56.1 317.7 56.1 317.7 57.7 322.5 57.7 322.5 56.1 321 56.1 321 51.9 325.3 57.7 329.9 57.7 329.9 51.5 331.4 51.5 331.4 50 326.5 50 326.5 51.5" fill="#bcbcbc"/><path d="M352.7,50h-6.4v1.5h1.8l-2.6,4.6H344v1.6h5V56.1h-1.5l.6-1.1h4l.6,1.1h-1.5v1.6h6.5V56.1h-1.5Zm-3.9,3.6,1.3-2.3,1.2,2.3Z" fill="#bcbcbc"/><path d="M324.3,30.5H323c-1.8.2-2.4.7-3,1.8a33.5,33.5,0,0,0-1.9,5.9l-3.7-.2c-.5-4-1.5-20.9-1.5-26.6l2.3-.2c.5,2.7,2.2,12,3.5,14.9a3.3,3.3,0,0,0,3,1.9h5.1a3.3,3.3,0,0,0,3-1.9c1.3-2.9,3-12.2,3.5-14.9l2.3.2c0,5.7-1,22.6-1.5,26.6l-3.7.2a33.5,33.5,0,0,0-1.9-5.9c-.6-1.1-1.2-1.6-3-1.8h-1.2" fill="#bcbcbc"/><path d="M324.3,42.7c-3.5,0-11.5-.3-14.1-.7a7.1,7.1,0,0,1-5.5-4.8c-.8-2.2-1.4-6.4-1.7-12.3a54.3,54.3,0,0,1,0-9.9c.4-4.9,2.6-6.8,7.3-7.4s10.2-.5,14-.5,10.7.2,13.9.5c4.7.6,6.9,2.5,7.3,7.4a54.3,54.3,0,0,1,0,9.9c-.3,5.9-.9,10.1-1.7,12.3a7.1,7.1,0,0,1-5.5,4.8c-2.6.4-10.6.7-14,.7Zm13.6-2.9a5.1,5.1,0,0,0,3.9-3.3c.5-1.4,1.2-4.6,1.6-11.7a78.1,78.1,0,0,0,0-9.7c-.3-3.3-1.9-4.9-5.5-5.3s-9.9-.5-13.6-.5-10.7.1-13.7.5-5.2,2-5.5,5.3a78.1,78.1,0,0,0,0,9.7c.4,7.1,1.1,10.3,1.6,11.7a5.1,5.1,0,0,0,3.9,3.3,122.3,122.3,0,0,0,13.7.7,121.7,121.7,0,0,0,13.6-.7" fill="#bcbcbc"/></g></g></svg>