<?xml version="1.0" encoding="utf-8"?>
<!-- Generator: Adobe Illustrator 19.2.1, SVG Export Plug-In . SVG Version: 6.00 Build 0)  -->
<svg version="1.1" xmlns="http://www.w3.org/2000/svg" xmlns:xlink="http://www.w3.org/1999/xlink" x="0px" y="0px"
	 viewBox="0 0 576 158.5" style="enable-background:new 0 0 576 158.5;" xml:space="preserve">
<style type="text/css">
	.st0{display:none;}
	.st1{display:inline;fill:#E11B22;}
	.st2{fill:url(#XMLID_8_);}
	.st3{filter:url(#Adobe_OpacityMaskFilter);}
	.st4{filter:url(#Adobe_OpacityMaskFilter_1_);}
	.st5{mask:url(#XMLID_9_);fill:url(#XMLID_11_);}
	.st6{fill:url(#XMLID_12_);}
	.st7{fill:url(#XMLID_13_);}
	.st8{filter:url(#Adobe_OpacityMaskFilter_2_);}
	.st9{filter:url(#Adobe_OpacityMaskFilter_3_);}
	.st10{mask:url(#XMLID_15_);fill:url(#XMLID_16_);}
	.st11{fill:url(#XMLID_17_);}
	.st12{fill:#FFFFFF;}
</style>
<g id="圖層_2" class="st0">
	<rect x="-0.5" y="-3" class="st1" width="578" height="166"/>
</g>
<g id="圖層_1">
	<g id="XMLID_6_">
		<g id="XMLID_1_">
			<linearGradient id="XMLID_8_" gradientUnits="userSpaceOnUse" x1="76.9779" y1="129.5186" x2="131.6148" y2="34.8848">
				<stop  offset="0" style="stop-color:#A70E13"/>
				<stop  offset="1" style="stop-color:#E11B22"/>
			</linearGradient>
			<path id="XMLID_7_" class="st2" d="M156.3,91.5c0.1-0.7,0.2-1.3,0.4-2c0.6-3.6,0.9-7.4,0.9-11.2v-0.5c0-2.1-0.1-4.1-0.3-6.1
				c-3.6-24.3-24.5-42.9-49.8-42.9c-14.2,0-27.1,5.9-36.3,15.4c4.1-1.7,8.8-2.7,14-2.7c20.9,0,35.1,17.2,35.1,36.8v0.5
				c0,19.6-12.9,36.3-34.6,36.3c-6.7,0-12.7-1.8-17.8-4.8c-5.1-3.1-9.2-7.4-12.2-12.5c-3.2-6.9-4.9-14.5-4.9-22.6c0-0.4,0-0.9,0-1.3
				c0.1-2.4,0.3-4.7,0.6-7l0,0c0,0-16.2,78.3,74.6,69.2h0C141.8,125.8,152.8,110,156.3,91.5z"/>
			<defs>
				<filter id="Adobe_OpacityMaskFilter" filterUnits="userSpaceOnUse" x="64.1" y="33.1" width="89.1" height="99.3">
					<feFlood  style="flood-color:white;flood-opacity:1" result="back"/>
					<feBlend  in="SourceGraphic" in2="back" mode="normal"/>
				</filter>
			</defs>
			<mask maskUnits="userSpaceOnUse" x="64.1" y="33.1" width="89.1" height="99.3" id="XMLID_9_">
				<g class="st3">
					<defs>
						<filter id="Adobe_OpacityMaskFilter_1_" filterUnits="userSpaceOnUse" x="64.1" y="33.1" width="89.1" height="99.3">
							<feFlood  style="flood-color:white;flood-opacity:1" result="back"/>
							<feBlend  in="SourceGraphic" in2="back" mode="normal"/>
						</filter>
					</defs>
					<mask maskUnits="userSpaceOnUse" x="64.1" y="33.1" width="89.1" height="99.3" id="XMLID_9_">
						<g class="st4">
						</g>
					</mask>
					<linearGradient id="XMLID_11_" gradientUnits="userSpaceOnUse" x1="84.6633" y1="128.9347" x2="134.9499" y2="41.8357">
						<stop  offset="0" style="stop-color:#000000"/>
						<stop  offset="1" style="stop-color:#999999"/>
					</linearGradient>
					<path id="XMLID_14_" class="st5" d="M112,132.4c-21.4,0-37-5.9-46.5-17.6c-0.5-0.6-1-1.2-1.4-1.9c0.5,0.4,1.1,0.7,1.6,1
						c6,3.6,12.7,5.4,20,5.4c22.5,0,38.9-17.1,38.9-40.6v-0.5c0-22-15.7-39.4-36.3-41c5.9-2.7,12.5-4.2,19.2-4.2
						c11.1,0,21.8,4,30.2,11.3c8.2,7.2,13.7,17,15.3,27.8c0.2,2,0.2,3.8,0.2,5.6v0.5c0,3.5-0.3,7-0.8,10.5c-0.1,0.6-0.2,1.2-0.3,1.9
						c-1.7,8.6-5,16.6-9.9,23.8c-4.7,6.8-10.6,12.7-17.6,17.3C120.2,132.2,116,132.4,112,132.4z"/>
				</g>
			</mask>
			<linearGradient id="XMLID_12_" gradientUnits="userSpaceOnUse" x1="84.6633" y1="128.9347" x2="134.9499" y2="41.8357">
				<stop  offset="0" style="stop-color:#A70E13"/>
				<stop  offset="1" style="stop-color:#B11116"/>
			</linearGradient>
			<path id="XMLID_3_" class="st6" d="M112,132.4c-21.4,0-37-5.9-46.5-17.6c-0.5-0.6-1-1.2-1.4-1.9c0.5,0.4,1.1,0.7,1.6,1
				c6,3.6,12.7,5.4,20,5.4c22.5,0,38.9-17.1,38.9-40.6v-0.5c0-22-15.7-39.4-36.3-41c5.9-2.7,12.5-4.2,19.2-4.2
				c11.1,0,21.8,4,30.2,11.3c8.2,7.2,13.7,17,15.3,27.8c0.2,2,0.2,3.8,0.2,5.6v0.5c0,3.5-0.3,7-0.8,10.5c-0.1,0.6-0.2,1.2-0.3,1.9
				c-1.7,8.6-5,16.6-9.9,23.8c-4.7,6.8-10.6,12.7-17.6,17.3C120.2,132.2,116,132.4,112,132.4z"/>
			<linearGradient id="XMLID_13_" gradientUnits="userSpaceOnUse" x1="81.1949" y1="147.6572" x2="81.1949" y2="8.9314">
				<stop  offset="0" style="stop-color:#E11B22"/>
				<stop  offset="0.7857" style="stop-color:#F37021"/>
				<stop  offset="1" style="stop-color:#FAA61A"/>
			</linearGradient>
			<path id="XMLID_4_" class="st7" d="M51.5,66.8c4-25.8,26.3-45.5,53.2-45.5c0.6,0,1.2,0,1.7,0.1c17.6,0.6,33.1,9.6,42.5,23.1
				C137.1,23.2,113.9,8.9,85.7,8.9c-23.4,0-43.4,9.9-56.4,25.3c-10.1,12-16,27.3-16,44.1v0.5c0,38.3,30.6,68.9,71.8,68.9
				c15.5,0,29.4-4.3,40.9-11.7h0C35.3,145.1,51.5,66.8,51.5,66.8L51.5,66.8z"/>
			<defs>
				<filter id="Adobe_OpacityMaskFilter_2_" filterUnits="userSpaceOnUse" x="17.6" y="13.3" width="92" height="130">
					<feFlood  style="flood-color:white;flood-opacity:1" result="back"/>
					<feBlend  in="SourceGraphic" in2="back" mode="normal"/>
				</filter>
			</defs>
			<mask maskUnits="userSpaceOnUse" x="17.6" y="13.3" width="92" height="130" id="XMLID_15_">
				<g class="st8">
					<defs>
						<filter id="Adobe_OpacityMaskFilter_3_" filterUnits="userSpaceOnUse" x="17.6" y="13.3" width="92" height="130">
							<feFlood  style="flood-color:white;flood-opacity:1" result="back"/>
							<feBlend  in="SourceGraphic" in2="back" mode="normal"/>
						</filter>
					</defs>
					<mask maskUnits="userSpaceOnUse" x="17.6" y="13.3" width="92" height="130" id="XMLID_15_">
						<g class="st9">
						</g>
					</mask>
					<linearGradient id="XMLID_16_" gradientUnits="userSpaceOnUse" x1="63.5486" y1="143.3163" x2="63.5486" y2="13.2723">
						<stop  offset="0" style="stop-color:#000000"/>
						<stop  offset="0.7857" style="stop-color:#000000"/>
						<stop  offset="1" style="stop-color:#FFFFFF"/>
					</linearGradient>
					<path id="XMLID_10_" class="st10" d="M85.2,143.3c-18.7,0-35.9-6.7-48.5-18.8c-12.3-12-19.2-28.2-19.2-45.7v-0.5
						c0-7.7,1.4-15.2,4-22.3c2.5-6.9,6.3-13.3,11.1-19c6.2-7.4,13.9-13.2,22.8-17.3c9.3-4.3,19.5-6.5,30.3-6.5
						c8.3,0,16.3,1.3,23.8,3.9c-1-0.1-2-0.1-3-0.2c-0.2,0-0.3,0-0.5,0c-0.4,0-0.9,0-1.3,0c-28.8,0-52.9,20.5-57.4,48.8l0,0.2
						c-0.1,0.3-1.7,8.2-1.1,18.7c0.8,14.1,5.1,26.5,12.6,35.6c10,12.3,25.4,19.2,45.7,20.5C98.3,142.5,91.9,143.3,85.2,143.3z"/>
				</g>
			</mask>
			<linearGradient id="XMLID_17_" gradientUnits="userSpaceOnUse" x1="63.5486" y1="143.3163" x2="63.5486" y2="13.2723">
				<stop  offset="0" style="stop-color:#E11B22"/>
				<stop  offset="0.7857" style="stop-color:#F37021"/>
				<stop  offset="1" style="stop-color:#FFD400"/>
			</linearGradient>
			<path id="XMLID_2_" class="st11" d="M85.2,143.3c-18.7,0-35.9-6.7-48.5-18.8c-12.3-12-19.2-28.2-19.2-45.7v-0.5
				c0-7.7,1.4-15.2,4-22.3c2.5-6.9,6.3-13.3,11.1-19c6.2-7.4,13.9-13.2,22.8-17.3c9.3-4.3,19.5-6.5,30.3-6.5
				c8.3,0,16.3,1.3,23.8,3.9c-1-0.1-2-0.1-3-0.2c-0.2,0-0.3,0-0.5,0c-0.4,0-0.9,0-1.3,0c-28.8,0-52.9,20.5-57.4,48.8l0,0.2
				c-0.1,0.3-1.7,8.2-1.1,18.7c0.8,14.1,5.1,26.5,12.6,35.6c10,12.3,25.4,19.2,45.7,20.5C98.3,142.5,91.9,143.3,85.2,143.3z"/>
		</g>
	</g>
	<g>
		<path class="st12" d="M250.3,106.9h-7.1v4.7h6.9v2h-6.9v7.1h-2.2v-15.8h9.3V106.9z"/>
		<path class="st12" d="M261.3,120.7h-2.1l-0.1-0.8c-0.9,0.7-1.8,1.1-2.9,1.1c-2.7,0-4-1.5-4-4.6v-7h2.1v7.4c0,1.5,0.7,2.3,2.2,2.3
			c0.8,0,1.4-0.3,1.9-0.9c0.4-0.5,0.7-1.2,0.7-2.1v-6.7h2.1v8.5C261.1,118.7,261.1,119.6,261.3,120.7z"/>
		<path class="st12" d="M282.3,116.4c0,3.1-2,4.7-6.1,4.7c-1.6,0-2.8-0.5-3.8-1.5c-0.9-0.9-1.3-2.2-1.3-3.7h2.2
			c0,1.1,0.3,1.9,0.9,2.5c0.5,0.5,1.4,0.7,2.6,0.7c0.9,0,1.6-0.2,2.2-0.6c0.7-0.5,1-1.1,1-2c0-0.8-0.5-1.4-1.4-1.9
			c-0.2-0.1-1.1-0.4-2.7-1c-1.4-0.5-2.4-1-3.1-1.5c-0.9-0.8-1.4-1.7-1.4-2.9c0-1.4,0.5-2.5,1.6-3.3c1-0.8,2.2-1.3,3.6-1.3
			c1.6,0,2.9,0.4,3.8,1.1c1,0.8,1.5,1.9,1.5,3.5h-2.2c0-0.8-0.3-1.5-0.9-1.9c-0.5-0.5-1.2-0.7-2.1-0.7c-0.8,0-1.5,0.2-2.1,0.6
			c-0.7,0.4-1,1-1,1.8c0,0.7,0.4,1.3,1.1,1.8c0.3,0.2,1,0.5,2.1,0.9c1.8,0.7,3,1.2,3.5,1.6C281.7,114,282.3,115.1,282.3,116.4z"/>
		<path class="st12" d="M293,120.7h-2.1v-7.3c0-1.6-0.8-2.3-2.3-2.3c-0.7,0-1.3,0.3-1.8,0.9c-0.4,0.6-0.7,1.3-0.7,2.2v6.6h-2.1
			v-15.8h2.1v5.2c0.9-0.7,1.8-1,2.7-1c1.6,0,2.8,0.6,3.5,1.9c0.4,0.8,0.6,1.7,0.6,2.8V120.7z"/>
		<path class="st12" d="M304.8,115.6h-8c0.1,1,0.4,1.8,0.9,2.4c0.6,0.7,1.3,1.1,2.3,1.1c1.4,0,2.3-0.7,2.6-2h2.2
			c-0.2,1.2-0.7,2.1-1.6,2.8c-0.9,0.7-2,1.1-3.3,1.1c-1.7,0-3-0.6-3.9-1.8c-0.9-1.1-1.3-2.5-1.3-4.2c0-1.5,0.4-2.9,1.2-4
			c0.9-1.3,2.2-1.9,3.8-1.9c1.7,0,3.1,0.7,4,2C304.4,112.3,304.8,113.8,304.8,115.6z M302.6,113.7c-0.2-0.8-0.6-1.4-1.1-1.9
			c-0.5-0.5-1.1-0.7-1.8-0.7c-1.5,0-2.4,0.9-2.8,2.7H302.6z"/>
		<path class="st12" d="M315.5,120.7h-2.1v-7.5c0-1.5-0.7-2.2-2.2-2.2c-0.8,0-1.4,0.3-1.9,0.8c-0.4,0.6-0.7,1.3-0.7,2.1v6.7h-2.1
			v-8.5c0-0.6-0.1-1.6-0.2-2.8h2.2l0.1,0.7c0.8-0.7,1.8-1,2.9-1c1.7,0,2.8,0.6,3.5,1.9c0.4,0.7,0.6,1.6,0.6,2.7V120.7z"/>
		<path class="st12" d="M327.3,109.4c-0.1,1.2-0.2,2.1-0.2,2.8v4.9c0,1.4-0.1,2.5-0.3,3.2c-0.3,1.1-0.9,1.9-1.8,2.4
			c-0.9,0.5-1.9,0.7-2.9,0.7c-1.3,0-2.3-0.2-3.1-0.7c-0.9-0.6-1.4-1.4-1.4-2.6h2.1c0.1,0.9,1,1.4,2.5,1.4c0.8,0,1.4-0.3,2-0.8
			c0.6-0.6,0.9-1.3,0.9-2.1v-0.1c-0.9,0.7-1.9,1.1-3,1.1c-1.6,0-2.8-0.5-3.7-1.5c-0.8-0.9-1.2-2.2-1.2-3.7c0-1.6,0.4-2.8,1.2-3.7
			c0.9-1,2.1-1.6,3.7-1.6c1.1,0,2.1,0.4,3.1,1.2l0-0.9H327.3z M325.1,114.3c0-0.9-0.3-1.7-0.8-2.4c-0.6-0.6-1.3-0.9-2.1-0.9
			c-0.9,0-1.6,0.3-2.1,1c-0.5,0.6-0.7,1.4-0.7,2.3c0,1,0.2,1.8,0.7,2.4c0.5,0.7,1.2,1,2.1,1c0.9,0,1.6-0.3,2.2-0.9
			C324.8,116.1,325.1,115.3,325.1,114.3z"/>
		<path class="st12" d="M349.7,116.1c-0.1,1.1-0.4,1.9-0.8,2.6c-0.5,0.7-1.2,1.3-2,1.7c-0.9,0.4-1.8,0.6-2.8,0.6
			c-2.4,0-4.2-0.9-5.4-2.6c-1-1.4-1.5-3.3-1.5-5.7c0-2.3,0.5-4.2,1.6-5.7c1.2-1.7,3-2.6,5.3-2.6c1.6,0,2.8,0.4,3.8,1.2
			c1,0.9,1.6,2.1,1.6,3.6h-2.2c-0.3-1.9-1.3-2.8-3.2-2.8c-1.6,0-2.8,0.7-3.6,2c-0.7,1.1-1,2.5-1,4.3c0,1.7,0.3,3.1,1,4.2
			c0.8,1.3,2,2,3.6,2c0.9,0,1.6-0.3,2.2-0.8c0.6-0.5,1-1.2,1.2-2.1H349.7z"/>
		<path class="st12" d="M360.1,120.7h-2.2l0-0.7c-0.9,0.7-1.9,1-2.9,1c-1,0-1.9-0.3-2.7-0.9c-0.8-0.7-1.2-1.6-1.2-2.7
			c0-1.3,0.4-2.2,1.3-2.9c0.7-0.5,1.5-0.8,2.6-0.9c0.5-0.1,1.4-0.1,2.7-0.1v-0.7c0-1.3-0.7-1.9-2-1.9c-0.7,0-1.2,0.1-1.5,0.3
			c-0.3,0.3-0.6,0.7-0.6,1.4h-2.2c0.1-1.2,0.6-2.1,1.4-2.7c0.8-0.6,1.8-0.9,2.9-0.9c2.7,0,4.1,1.3,4.1,3.8v5.1
			C359.8,118.9,359.9,119.9,360.1,120.7z M357.8,115.4c-0.7,0-1.1,0-1.3,0c-2.2,0.1-3.2,0.7-3.2,2c0,0.5,0.2,0.9,0.5,1.2
			c0.4,0.3,0.9,0.5,1.4,0.5C356.9,119.2,357.8,117.9,357.8,115.4z"/>
		<path class="st12" d="M367.8,111.2c-0.6-0.1-1-0.2-1.2-0.2c-1.4,0-2.1,0.9-2.1,2.7v7h-2.1v-8.5c0-0.6-0.1-1.5-0.2-2.7h2.1l0,0.7
			c0.7-0.7,1.3-1,1.8-1c0.3,0,0.9,0,1.7,0.1V111.2z"/>
		<path class="st12" d="M394,120.7h-2.2v-11l-5,11h-2l-5-11v11h-2.2v-15.8h2.2l6,13.2l6-13.2h2.2V120.7z"/>
		<path class="st12" d="M405.1,120.7h-2.2l0-0.7c-0.9,0.7-1.9,1-2.9,1c-1,0-1.9-0.3-2.7-0.9c-0.8-0.7-1.2-1.6-1.2-2.7
			c0-1.3,0.4-2.2,1.3-2.9c0.7-0.5,1.5-0.8,2.6-0.9c0.5-0.1,1.4-0.1,2.7-0.1v-0.7c0-1.3-0.7-1.9-2-1.9c-0.7,0-1.2,0.1-1.5,0.3
			c-0.3,0.3-0.6,0.7-0.6,1.4h-2.2c0.1-1.2,0.6-2.1,1.4-2.7c0.8-0.6,1.8-0.9,2.9-0.9c2.7,0,4.1,1.3,4.1,3.8v5.1
			C404.8,118.9,404.9,119.9,405.1,120.7z M402.8,115.4c-0.7,0-1.1,0-1.3,0c-2.2,0.1-3.2,0.7-3.2,2c0,0.5,0.2,0.9,0.5,1.2
			c0.4,0.3,0.9,0.5,1.4,0.5C401.9,119.2,402.8,117.9,402.8,115.4z"/>
		<path class="st12" d="M411.1,106.9h-2.2v-2h2.2V106.9z M411.1,120.7h-2.2v-11.3h2.2V120.7z"/>
		<path class="st12" d="M424.1,120.7H422v-7.5c0-1.5-0.7-2.2-2.2-2.2c-0.8,0-1.4,0.3-1.9,0.8c-0.4,0.6-0.7,1.3-0.7,2.1v6.7h-2.1
			v-8.5c0-0.6-0.1-1.6-0.2-2.8h2.2l0.1,0.7c0.8-0.7,1.8-1,2.9-1c1.7,0,2.8,0.6,3.5,1.9c0.4,0.7,0.6,1.6,0.6,2.7V120.7z"/>
		<path class="st12" d="M432.7,111.4H430l0,6.5c0,0.6,0.3,1,1,1h1.4v1.9h-1.7c-1.9,0-2.8-1-2.8-2.9l0-6.4h-2.5v-1.9h2.6v-2l2.1-1v3
			h2.7V111.4z"/>
		<path class="st12" d="M444,115.6h-8c0.1,1,0.4,1.8,0.9,2.4c0.6,0.7,1.3,1.1,2.3,1.1c1.4,0,2.3-0.7,2.6-2h2.2
			c-0.2,1.2-0.7,2.1-1.6,2.8c-0.9,0.7-2,1.1-3.3,1.1c-1.7,0-3-0.6-3.9-1.8c-0.9-1.1-1.3-2.5-1.3-4.2c0-1.5,0.4-2.9,1.2-4
			c0.9-1.3,2.2-1.9,3.8-1.9c1.7,0,3.1,0.7,4,2C443.6,112.3,444,113.8,444,115.6z M441.8,113.7c-0.2-0.8-0.6-1.4-1.1-1.9
			c-0.5-0.5-1.1-0.7-1.8-0.7c-1.5,0-2.4,0.9-2.8,2.7H441.8z"/>
		<path class="st12" d="M454.7,120.7h-2.1v-7.5c0-1.5-0.7-2.2-2.2-2.2c-0.8,0-1.4,0.3-1.9,0.8c-0.4,0.6-0.7,1.3-0.7,2.1v6.7h-2.1
			v-8.5c0-0.6-0.1-1.6-0.2-2.8h2.2l0.1,0.7c0.8-0.7,1.8-1,2.9-1c1.7,0,2.8,0.6,3.5,1.9c0.4,0.7,0.6,1.6,0.6,2.7V120.7z"/>
		<path class="st12" d="M465.3,120.7h-2.2l0-0.7c-0.9,0.7-1.9,1-2.9,1c-1,0-1.9-0.3-2.7-0.9c-0.8-0.7-1.2-1.6-1.2-2.7
			c0-1.3,0.4-2.2,1.3-2.9c0.7-0.5,1.5-0.8,2.6-0.9c0.5-0.1,1.4-0.1,2.7-0.1v-0.7c0-1.3-0.7-1.9-2-1.9c-0.7,0-1.2,0.1-1.5,0.3
			c-0.3,0.3-0.6,0.7-0.6,1.4h-2.2c0.1-1.2,0.6-2.1,1.4-2.7c0.8-0.6,1.8-0.9,2.9-0.9c2.7,0,4.1,1.3,4.1,3.8v5.1
			C465.1,118.9,465.2,119.9,465.3,120.7z M463,115.4c-0.7,0-1.1,0-1.3,0c-2.2,0.1-3.2,0.7-3.2,2c0,0.5,0.2,0.9,0.5,1.2
			c0.4,0.3,0.9,0.5,1.4,0.5C462.2,119.2,463,117.9,463,115.4z"/>
		<path class="st12" d="M476.4,120.7h-2.1v-7.5c0-1.5-0.7-2.2-2.2-2.2c-0.8,0-1.4,0.3-1.9,0.8c-0.4,0.6-0.7,1.3-0.7,2.1v6.7h-2.1
			v-8.5c0-0.6-0.1-1.6-0.2-2.8h2.2l0.1,0.7c0.8-0.7,1.8-1,2.9-1c1.7,0,2.8,0.6,3.5,1.9c0.4,0.7,0.6,1.6,0.6,2.7V120.7z"/>
		<path class="st12" d="M487.4,116.8c0,1.3-0.4,2.4-1.2,3.1c-0.8,0.8-1.9,1.1-3.3,1.1c-1.6,0-2.9-0.6-3.8-1.9
			c-0.8-1.1-1.1-2.4-1.1-4c0-1.6,0.4-2.9,1.2-4.1c0.9-1.3,2.2-2,3.8-2c1.4,0,2.4,0.4,3.2,1.2c0.8,0.8,1.2,1.8,1.2,3h-2.1
			c-0.1-1.5-0.9-2.3-2.4-2.3c-0.8,0-1.5,0.4-2,1.2c-0.5,0.8-0.8,1.8-0.8,2.9c0,1.1,0.3,2,0.8,2.8c0.5,0.8,1.1,1.2,1.8,1.2
			c0.9,0,1.5-0.2,1.9-0.5c0.4-0.3,0.6-0.9,0.6-1.8H487.4z"/>
		<path class="st12" d="M498.9,115.6h-8c0.1,1,0.4,1.8,0.9,2.4c0.6,0.7,1.3,1.1,2.3,1.1c1.4,0,2.3-0.7,2.6-2h2.2
			c-0.2,1.2-0.7,2.1-1.6,2.8c-0.9,0.7-2,1.1-3.3,1.1c-1.7,0-3-0.6-3.9-1.8c-0.9-1.1-1.3-2.5-1.3-4.2c0-1.5,0.4-2.9,1.2-4
			c0.9-1.3,2.2-1.9,3.8-1.9c1.7,0,3.1,0.7,4,2C498.6,112.3,499,113.8,498.9,115.6z M496.7,113.7c-0.2-0.8-0.6-1.4-1.1-1.9
			c-0.5-0.5-1.1-0.7-1.8-0.7c-1.5,0-2.4,0.9-2.8,2.7H496.7z"/>
		<path class="st12" d="M519.7,109.6c0,3.1-2.2,4.7-6.6,4.7h-2v6.4H509v-15.9h4.1C517.5,104.9,519.7,106.4,519.7,109.6z
			 M517.5,109.6c0-0.9-0.3-1.6-1-2.1c-0.6-0.4-1.4-0.7-2.5-0.7h-2.9v5.4h2.9C516.3,112.3,517.5,111.4,517.5,109.6z"/>
		<path class="st12" d="M525.8,120.7h-2.2v-15.9h2.2V120.7z"/>
		<path class="st12" d="M538.3,120.7h-2.2l0-0.7c-0.9,0.7-1.9,1-2.9,1c-1,0-1.9-0.3-2.7-0.9c-0.8-0.7-1.2-1.6-1.2-2.7
			c0-1.3,0.4-2.2,1.3-2.9c0.7-0.5,1.5-0.8,2.6-0.9c0.5-0.1,1.4-0.1,2.7-0.1v-0.7c0-1.3-0.7-1.9-2-1.9c-0.7,0-1.2,0.1-1.5,0.3
			c-0.3,0.3-0.6,0.7-0.6,1.4h-2.2c0.1-1.2,0.6-2.1,1.4-2.7c0.8-0.6,1.8-0.9,2.9-0.9c2.7,0,4.1,1.3,4.1,3.8v5.1
			C538.1,118.9,538.2,119.9,538.3,120.7z M536,115.4c-0.7,0-1.1,0-1.3,0c-2.2,0.1-3.2,0.7-3.2,2c0,0.5,0.2,0.9,0.5,1.2
			c0.4,0.3,0.9,0.5,1.4,0.5C535.2,119.2,536,117.9,536,115.4z"/>
		<path class="st12" d="M549.4,120.7h-2.1v-7.5c0-1.5-0.7-2.2-2.2-2.2c-0.8,0-1.4,0.3-1.9,0.8c-0.4,0.6-0.7,1.3-0.7,2.1v6.7h-2.1
			v-8.5c0-0.6-0.1-1.6-0.2-2.8h2.2l0.1,0.7c0.8-0.7,1.8-1,2.9-1c1.7,0,2.8,0.6,3.5,1.9c0.4,0.7,0.6,1.6,0.6,2.7V120.7z"/>
		<path class="st12" d="M558,111.4h-2.7l0,6.5c0,0.6,0.3,1,1,1h1.4v1.9H556c-1.9,0-2.8-1-2.8-2.9l0-6.4h-2.5v-1.9h2.6v-2l2.1-1v3
			h2.7V111.4z"/>
	</g>
	<g>
		<path class="st12" d="M223.5,29.8h5.3h5.3v8.8h-10.6v-2.3H183v2.3h-10.6v-2.3v-3.3v-3.2h25.7v-2.3h10.6v2.3H223.5z M174.2,83.6V65
			h5.3h5.3h36.9h5.3h5.3v18.6c0,4.1-2.1,6.2-6.2,6.2h-51.9v-3.2V83.6z M174.4,56.8v-9.4h5.3h5.3h36.4h5.3h5.3v9.2
			c0,4.1-2.1,6.2-6.2,6.2h-51.4v-3V56.8z M231.3,40.5V45h-56.1v-4.5H231.3z M198.1,74.3v-3h-13.3v3H198.1z M184.8,80.3v3.2h13.3
			v-3.2H184.8z M219.8,56.8c1.1,0,1.6-0.5,1.6-1.6v-1.8H185v3.4H219.8z M221.7,74.3v-3h-13v3H221.7z M208.7,80.3v3.2h11.4
			c1.1,0,1.6-0.5,1.6-1.6v-1.7H208.7z"/>
		<path class="st12" d="M248,83.5c0,4.1-2.1,6.2-6.2,6.2h-3.5l-1.4-8.6h0.4c1.1,0,1.6-0.5,1.6-1.6v-51h22v54.9
			c0,4.1-2.1,6.2-6.2,6.2H251l-1.4-8.6h0.7c1.1,0,1.6-0.5,1.6-1.6v-7.9H248V83.5z M251.9,45.6v-8.4H248v8.4H251.9z M251.9,63.1v-9
			H248v9H251.9z M297.4,83.5c0,4.1-2.1,6.2-6.2,6.2h-7.7l-1.4-8.1h3.4c1.1,0,1.6-0.5,1.6-1.6v-6.9h-4.7l-3.6,12
			c-1,3-3.1,4.5-6.5,4.5h-7.2l-1.5-8.1h4.4c1.2,0,2-0.6,2.3-1.8l2-6.7h-7.7v-7.6h-1.2l-1.5-7h1.9c1.1,0,1.8-0.6,2.1-1.8l0.7-2.1
			h-3.2v-8.1h5.9l1.9-5.4h-1.7c-0.6,1-1.3,1.5-2.3,1.5h-3.4l-1.4-7h1c0.6,0,1-0.4,1-1.2l1.3-4.4h6.5l-1,3.6h2.4l2.2-6.2h10.1
			l-2.2,6.2h6.6l-0.8-3.6h6.5l1,3.7c0.1,1,0.4,1.5,1,1.5h1.1v7h-4.3c-1.1,0-1.9-0.3-2.5-1H292l1.5,5.4h5.6v8.1h-3.4l0.7,2.5
			c0.3,0.9,0.9,1.4,2,1.4h1v7h-1.9V83.5z M286.1,54.7h-9.7l-2.2,6.7c-0.5,1.5-1.3,2.6-2.3,3.3h3l1.3-4.4h10.1l-1.4,4.4h2.1h3.3
			c-1.2-0.9-2.1-2.3-2.6-4.3L286.1,54.7z M282.4,41.2h-1.3l-1.9,5.4h4.6L282.4,41.2z"/>
		<path class="st12" d="M318.6,65.1l-3.5,19c-0.6,3.8-2.9,5.7-6.7,5.7h-5.2l-1.5-8.6h2.1c0.9,0,1.5-0.7,1.7-1.8l2.6-14.2H318.6z
			 M314.1,33.4c0.3,1,1,1.5,2.2,1.5h1.8v8.6h-7.2c-3.2,0-5.3-2-6.3-5.8l-2.2-9.4h10.3L314.1,33.4z M314.6,50.9c0.3,1,1,1.5,2.2,1.5
			h1.3V61h-6.7c-3.2,0-5.3-2-6.3-5.8l-2.2-8.9h10.3L314.6,50.9z M321,43.5l-1.5-8.1h0.8c1.9,0,3.1-0.7,3.7-1.8l2.9-6.1h10.6
			l-1.6,3.5h28.3v8.3h-32c-0.9,1.7-2,2.8-3.2,3.5h33.5v7.6H323v-6.9H321z M344.5,62.3h-22.8v-8.6h41.1v7.4l-0.1,0.1l-24.4,17.1
			c-1.8,1.9-0.9,2.9,2.7,2.9h23.4v8.6h-36.6c-3.5,0-5.7-1.4-6.7-4.3c-0.9-2.8-0.5-5.2,1.3-7.2L344.5,62.3z"/>
		<path class="st12" d="M367.1,86.3V78h26v-3.5h-24.4v-4.1v-4V42.3h5.3h5.3h13.8v-3.4h-25.5v-8.1h25.5v-3.4h10.6v3.4h25.1v8.1h-25.1
			v3.4h13.5h5.3h5.3v26c0,4.1-2.1,6.2-6.2,6.2h-17.9V78h25.7v8.3h-25.7v3.4h-10.6v-3.4H367.1z M393.1,50.4h-13.8v4.4h13.8V50.4z
			 M393.1,62.3h-13.8v4.1h13.8V62.3z M403.7,54.7h13.5v-4.4h-13.5V54.7z M403.7,66.4h11.9c1.1,0,1.6-0.5,1.6-1.6v-2.5h-13.5V66.4z"
			/>
		<path class="st12" d="M433,54.9l-1.5-8.6h1.1c1.3,0,2.1-0.6,2.3-1.9l4.1-16.7h10.6l-5.5,21.3h2.2v40.6h-10.6V54.9H433z
			 M463.7,68.1l-2,14.5c-0.7,3.6-3,5.3-7,5.3h-4.2l-1.5-8.6h2.1c0.9,0,1.5-0.6,1.7-1.7l1.3-9.6H463.7z M450.2,65.2v-8.3h16.3v-4.4
			h-13.7v-4.2v-4.1V28.7h5.3h5.3H481h5.3h5.3v17.6c0,4.1-2.1,6.2-6.2,6.2h-8.3v4.4h16.8v8.3h-16.8v24.5h-10.6V65.2H450.2z
			 M479.4,44.2c1.1,0,1.6-0.5,1.6-1.6V37h-17.6v7.2H479.4z M491,77.8c0.3,1,1,1.5,2.2,1.5h0.4v8.6H488c-3.3,0-5.4-1.9-6.4-5.7
			L480,68.1h10.1L491,77.8z"/>
		<path class="st12" d="M498.5,53.9l-1.5-8.6h0.1c1.3,0,2.1-0.6,2.3-1.9l3.4-15.7h10.6l-4.6,20.1h1.8v41.9H500V53.9H498.5z
			 M520.3,36.4v46.5h-7V36.4H520.3z M547,46.7l2.8,2.3c1,0.9,2.4,1.4,4.1,1.4h5.6V58h-7.9c-3,0-5.4-0.8-7.4-2.4l-3.2-2.9l-2.3,2.3
			c-1.7,2-3.9,3-6.7,3h-8.5l-1.5-7.6h6c1.2,0,2.1-0.4,2.6-1.1l3.7-3l-3.6-3.4c-1,0.6-2.2,0.8-3.7,0.8h-3.4l-1.5-8.1h0.6
			c1.2,0,2-0.6,2.3-1.8l1.9-6.4h10.1l-1,3.1h23.6v8.1h-4.1L547,46.7z M545.4,58.2l-5.3,7.4c-1.6,1.8-3.8,2.7-6.7,2.7h-8.8l-1.5-6.3
			h7.7c1,0,1.7-0.3,2.2-1l2.3-2.8H545.4z M555.1,63.8l-9.1,12.1c-1.6,1.8-3.8,2.7-6.7,2.7h-14.3l-1.5-6.8h12.8c1.1,0,1.8-0.3,2.2-1
			l6-7H555.1z M559.4,75.8L551.3,87c-1.7,1.8-3.9,2.7-6.7,2.7h-19.7l-1.5-7h18.2c1.1,0,1.9-0.3,2.3-1l5-6H559.4z M533.4,38.7
			l-0.1,0.6c-0.3,0.8-0.7,1.6-1.1,2.2h7.7l3.3-2.8H533.4z"/>
	</g>
</g>
</svg>
