<svg id="圖層_1" data-name="圖層 1" xmlns="http://www.w3.org/2000/svg" xmlns:xlink="http://www.w3.org/1999/xlink" viewBox="0 0 187 47.5"><defs><filter id="luminosity-noclip" x="17.35" y="-8216" width="30.49" height="32766" filterUnits="userSpaceOnUse" color-interpolation-filters="sRGB"><feFlood flood-color="#fff" result="bg"/><feBlend in="SourceGraphic" in2="bg"/></filter><mask id="mask" x="17.35" y="-8216" width="30.49" height="32766" maskUnits="userSpaceOnUse"><g filter="url(#luminosity-noclip)"/></mask><linearGradient id="linear-gradient" x1="24.39" y1="41.11" x2="41.59" y2="11.3" gradientUnits="userSpaceOnUse"><stop offset="0"/><stop offset="1" stop-color="#999"/></linearGradient><filter id="luminosity-noclip-2" x="1.42" y="-8216" width="31.48" height="32766" filterUnits="userSpaceOnUse" color-interpolation-filters="sRGB"><feFlood flood-color="#fff" result="bg"/><feBlend in="SourceGraphic" in2="bg"/></filter><mask id="mask-2" x="1.42" y="-8216" width="31.48" height="32766" maskUnits="userSpaceOnUse"><g filter="url(#luminosity-noclip-2)"/></mask><linearGradient id="linear-gradient-2" x1="17.16" y1="46.03" x2="17.16" y2="1.53" gradientUnits="userSpaceOnUse"><stop offset="0"/><stop offset="0.79"/><stop offset="1" stop-color="#fff"/></linearGradient><linearGradient id="未命名漸層_2" x1="129.86" y1="37.62" x2="59.2" y2="23.02" gradientUnits="userSpaceOnUse"><stop offset="0" stop-color="#fff"/><stop offset="1"/></linearGradient><linearGradient id="linear-gradient-3" x1="21.76" y1="41.31" x2="40.45" y2="8.92" gradientUnits="userSpaceOnUse"><stop offset="0" stop-color="#a70e13"/><stop offset="1" stop-color="#e11b22"/></linearGradient><filter id="luminosity-noclip-3" x="17.35" y="8.31" width="30.49" height="33.96" filterUnits="userSpaceOnUse" color-interpolation-filters="sRGB"><feFlood flood-color="#fff" result="bg"/><feBlend in="SourceGraphic" in2="bg"/></filter><mask id="mask-3" x="17.35" y="8.27" width="30.49" height="33.96" maskUnits="userSpaceOnUse"><g filter="url(#luminosity-noclip-3)"><g transform="translate(0 0)"><g mask="url(#mask)"><path d="M33.8,42.3c-7.4,0-12.7-2-16-6l-.5-.7.6.4a13.7,13.7,0,0,0,6.8,1.9c7.8,0,13.3-5.9,13.3-14h0c0-7.5-5.3-13.5-12.4-14.1a16.3,16.3,0,0,1,6.6-1.4,15.5,15.5,0,0,1,10.3,3.9,15.9,15.9,0,0,1,5.3,9.5v2.1c0,1.2-.1,2.4-.2,3.6s-.1.4-.2.6a21.3,21.3,0,0,1-3.3,8.1,22.8,22.8,0,0,1-6,6Z" fill="url(#linear-gradient)" style="mix-blend-mode:multiply"/></g></g></g></mask><linearGradient id="linear-gradient-4" x1="24.39" y1="41.11" x2="41.59" y2="11.3" gradientUnits="userSpaceOnUse"><stop offset="0" stop-color="#a70e13"/><stop offset="1" stop-color="#b11116"/></linearGradient><linearGradient id="linear-gradient-5" x1="23.2" y1="47.51" x2="23.2" y2="0.04" gradientUnits="userSpaceOnUse"><stop offset="0" stop-color="#e11b22"/><stop offset="0.79" stop-color="#f37021"/><stop offset="1" stop-color="#faa61a"/></linearGradient><filter id="luminosity-noclip-4" x="1.42" y="1.53" width="31.48" height="44.5" filterUnits="userSpaceOnUse" color-interpolation-filters="sRGB"><feFlood flood-color="#fff" result="bg"/><feBlend in="SourceGraphic" in2="bg"/></filter><mask id="mask-4" x="1.42" y="1.49" width="31.48" height="44.5" maskUnits="userSpaceOnUse"><g filter="url(#luminosity-noclip-4)"><g transform="translate(0 0)"><g mask="url(#mask-2)"><path d="M24.6,46A23.9,23.9,0,0,1,8,39.6,21.8,21.8,0,0,1,1.4,23.9h0a22.3,22.3,0,0,1,1.4-7.7A23.1,23.1,0,0,1,6.6,9.7a21,21,0,0,1,7.8-6A25.8,25.8,0,0,1,24.8,1.5a24.6,24.6,0,0,1,8.1,1.4H31.3A19.8,19.8,0,0,0,11.6,19.5h0a28.7,28.7,0,0,0-.4,6.5,21.2,21.2,0,0,0,4.3,12.1c3.5,4.3,8.7,6.6,15.7,7.1A28.4,28.4,0,0,1,24.6,46Z" fill="url(#linear-gradient-2)" style="mix-blend-mode:multiply"/></g></g></g></mask><linearGradient id="linear-gradient-6" x1="17.16" y1="46.03" x2="17.16" y2="1.53" gradientUnits="userSpaceOnUse"><stop offset="0" stop-color="#e11b22"/><stop offset="0.79" stop-color="#f37021"/><stop offset="1" stop-color="#ffd400"/></linearGradient><mask id="mask-5" x="54.28" y="30.58" width="132.72" height="10.16" maskUnits="userSpaceOnUse"><g transform="translate(0 0)"><rect x="54.3" y="30.6" width="132.7" height="10.16" fill="url(#未命名漸層_2)"/></g></mask><linearGradient id="linear-gradient-7" x1="213.21" y1="64.85" x2="130.98" y2="38.93" xlink:href="#linear-gradient-5"/></defs><title>logo</title><path d="M48.9,28.3c0-.2.1-.5.1-.7a23.4,23.4,0,0,0,.3-3.8v-.2a14.8,14.8,0,0,0-.1-2.1,17.2,17.2,0,0,0-29.4-9.4,12.1,12.1,0,0,1,4.8-.9c7.1,0,12,5.9,12,12.6h0c0,6.8-4.4,12.5-11.8,12.5a11.2,11.2,0,0,1-6.1-1.7,10.9,10.9,0,0,1-4.2-4.3,17.7,17.7,0,0,1-1.7-7.7v-.4a19.5,19.5,0,0,1,.2-2.5h0S7.5,46.6,38.6,43.5h0A23.6,23.6,0,0,0,48.9,28.3Z" transform="translate(0 0)" fill="url(#linear-gradient-3)"/><g mask="url(#mask-3)"><path d="M33.8,42.3c-7.4,0-12.7-2-16-6l-.5-.7.6.4a13.7,13.7,0,0,0,6.8,1.9c7.8,0,13.3-5.9,13.3-14h0c0-7.5-5.3-13.5-12.4-14.1a16.3,16.3,0,0,1,6.6-1.4,15.5,15.5,0,0,1,10.3,3.9,15.9,15.9,0,0,1,5.3,9.5v2.1c0,1.2-.1,2.4-.2,3.6s-.1.4-.2.6a21.3,21.3,0,0,1-3.3,8.1,22.8,22.8,0,0,1-6,6Z" transform="translate(0 0)" fill="url(#linear-gradient-4)"/></g><path d="M13,19.8A18.4,18.4,0,0,1,31.3,4.3h.5a18.5,18.5,0,0,1,14.6,7.9A24.3,24.3,0,0,0,24.8,0,24.8,24.8,0,0,0,5.5,8.7,23.2,23.2,0,0,0,0,23.8H0C0,37,10.5,47.5,24.6,47.5a26.1,26.1,0,0,0,14-4h0C7.5,46.6,13,19.8,13,19.8Z" transform="translate(0 0)" fill="url(#linear-gradient-5)"/><g mask="url(#mask-4)"><path d="M24.6,46A23.9,23.9,0,0,1,8,39.6,21.8,21.8,0,0,1,1.4,23.9h0a22.3,22.3,0,0,1,1.4-7.7A23.1,23.1,0,0,1,6.6,9.7a21,21,0,0,1,7.8-6A25.8,25.8,0,0,1,24.8,1.5a24.6,24.6,0,0,1,8.1,1.4H31.3A19.8,19.8,0,0,0,11.6,19.5h0a28.7,28.7,0,0,0-.4,6.5,21.2,21.2,0,0,0,4.3,12.1c3.5,4.3,8.7,6.6,15.7,7.1A28.4,28.4,0,0,1,24.6,46Z" transform="translate(0 0)" fill="url(#linear-gradient-6)"/></g><g mask="url(#mask-5)"><rect x="54.3" y="30.6" width="132.7" height="10.16" fill="url(#linear-gradient-7)"/></g><path d="M109.4,33.6H107v1.6h2.3v.7H107v2.4h-.8V32.9h3.2Z" transform="translate(0 0)" fill="#fff"/><path d="M113.2,38.3h-.7V38a1.3,1.3,0,0,1-1,.4c-.9,0-1.3-.5-1.3-1.6V34.4h.7V37c0,.5.2.7.7.7l.7-.2a1.9,1.9,0,0,0,.2-.8V34.4h.7v3A3.4,3.4,0,0,0,113.2,38.3Z" transform="translate(0 0)" fill="#fff"/><path d="M116.7,37.1c0,.5-.1.8-.5,1a1.6,1.6,0,0,1-1.1.3,1.5,1.5,0,0,1-1-.3,1.6,1.6,0,0,1-.5-1h.8c0,.2,0,.4.2.5l.6.2.6-.2a.8.8,0,0,0,.2-.4c0-.2-.1-.3-.4-.4a.8.8,0,0,0-.6-.2l-.8-.4a.8.8,0,0,1-.4-.7,1,1,0,0,1,.4-.9,1.7,1.7,0,0,1,1-.3c.9,0,1.4.4,1.4,1.2h-.7a.5.5,0,0,0-.2-.4h-.5c-.5,0-.7.1-.7.4s.1.3.3.4h.4l1,.4A.8.8,0,0,1,116.7,37.1Z" transform="translate(0 0)" fill="#fff"/><path d="M120.2,38.3h-.7V35.8c0-.6-.2-.8-.8-.8a.5.5,0,0,0-.5.3.9.9,0,0,0-.3.7v2.3h-.7V32.9h.7v1.8a1.3,1.3,0,0,1,1-.4,1.1,1.1,0,0,1,1.1.6,1.6,1.6,0,0,1,.2,1Z" transform="translate(0 0)" fill="#fff"/><path d="M124.3,36.5h-2.8a1.9,1.9,0,0,0,.4.9,1,1,0,0,0,.7.4.9.9,0,0,0,.9-.7h.8a1.5,1.5,0,0,1-.6.9,1.5,1.5,0,0,1-1.1.4,1.5,1.5,0,0,1-1.3-.6,1.9,1.9,0,0,1-.5-1.4,2.1,2.1,0,0,1,.4-1.4,1.5,1.5,0,0,1,1.3-.7,1.7,1.7,0,0,1,1.4.7A2.4,2.4,0,0,1,124.3,36.5Zm-.8-.6a1.5,1.5,0,0,0-.3-.7l-.7-.2q-.7,0-.9.9Z" transform="translate(0 0)" fill="#fff"/><path d="M128,38.3h-.8V35.7c0-.5-.2-.7-.7-.7a.9.9,0,0,0-.7.3,1.2,1.2,0,0,0-.2.7v2.3h-.7V35.4a4.1,4.1,0,0,0-.1-1h.8v.3a1.3,1.3,0,0,1,1-.4,1.3,1.3,0,0,1,1.2.7,2,2,0,0,1,.2.9Z" transform="translate(0 0)" fill="#fff"/><path d="M132,34.4c0,.4-.1.8-.1,1v1.7a3.7,3.7,0,0,1-.1,1.1,1.6,1.6,0,0,1-.6.8l-1,.2-1-.2a.9.9,0,0,1-.5-.9h.7c0,.3.3.5.8.5a1,1,0,0,0,1-1h0a1.3,1.3,0,0,1-1,.4,1.9,1.9,0,0,1-1.3-.5,2.2,2.2,0,0,1-.4-1.3,2,2,0,0,1,.4-1.3,1.7,1.7,0,0,1,1.3-.5,2.1,2.1,0,0,1,1,.4v-.3Zm-.8,1.7a1.1,1.1,0,0,0-.3-.8.8.8,0,0,0-.7-.3.9.9,0,0,0-.7.3,1.7,1.7,0,0,0,0,1.6,1,1,0,0,0,.7.4,1.2,1.2,0,0,0,.8-.4A1.9,1.9,0,0,0,131.2,36.1Z" transform="translate(0 0)" fill="#fff"/><path d="M140.3,38.3h-.8l-.6-1.4h-2.4l-.6,1.4h-.8l2.3-5.4h.7Zm-1.7-2.1-.9-2.3-.9,2.3Z" transform="translate(0 0)" fill="#fff"/><path d="M143.9,38.3h-.8V38a1.3,1.3,0,0,1-1,.4c-.9,0-1.4-.5-1.4-1.6V34.4h.8V37c0,.5.2.7.7.7l.7-.2a1.9,1.9,0,0,0,.2-.8V34.4h.7v3A3.4,3.4,0,0,0,143.9,38.3Z" transform="translate(0 0)" fill="#fff"/><path d="M146.8,35.1h-.9v2.2a.3.3,0,0,0,.3.3h.5v.7h-.6a.9.9,0,0,1-1-1V35.1h-.9v-.7h.9v-.6l.7-.4v1h.9Z" transform="translate(0 0)" fill="#fff"/><path d="M150.8,36.4a1.8,1.8,0,0,1-.4,1.3,1.6,1.6,0,0,1-1.4.7,1.5,1.5,0,0,1-1.4-.7,1.8,1.8,0,0,1-.4-1.3,2.1,2.1,0,0,1,.4-1.4,1.5,1.5,0,0,1,1.4-.7,1.6,1.6,0,0,1,1.4.7A2.1,2.1,0,0,1,150.8,36.4Zm-.7,0a1.7,1.7,0,0,0-.3-1,1,1,0,0,0-1.6,0,1.7,1.7,0,0,0-.3,1,1.6,1.6,0,0,0,.3.9.9.9,0,0,0,1.6,0A1.6,1.6,0,0,0,150.1,36.4Z" transform="translate(0 0)" fill="#fff"/><path d="M161.1,32.9l-1.5,5.4h-.7L157.5,34l-1.4,4.3h-.7l-1.5-5.4h.7l1.2,4.2,1.3-4.2h.8l1.3,4.2,1.2-4.2Z" transform="translate(0 0)" fill="#fff"/><path d="M164.5,38.3h-.7v-.2a1.7,1.7,0,0,1-1,.3,1.2,1.2,0,0,1-.9-.3,1,1,0,0,1-.4-.9,1.1,1.1,0,0,1,.4-1,1.6,1.6,0,0,1,.9-.3h1v-.2a.7.7,0,0,0-.7-.7l-.6.2-.2.4h-.7a1.1,1.1,0,0,1,.5-.9,1.5,1.5,0,0,1,1-.3,1.2,1.2,0,0,1,1.4,1.3v2.7Zm-.7-1.8h-.5c-.7,0-1.1.2-1.1.7a.5.5,0,0,0,.2.4l.5.2C163.5,37.8,163.8,37.3,163.8,36.5Z" transform="translate(0 0)" fill="#fff"/><path d="M167.2,35h-.4c-.5,0-.7.3-.7.9v2.4h-.8V34.5h.7v.2a.7.7,0,0,1,.6-.4h.6Z" transform="translate(0 0)" fill="#fff"/><path d="M169.7,35h-.4c-.5,0-.8.3-.8.9v2.4h-.7V35.4a3.4,3.4,0,0,0-.1-.9h.8v.2a.7.7,0,0,1,.6-.4h.6Z" transform="translate(0 0)" fill="#fff"/><path d="M173.1,38.3h-.7v-.2a1.9,1.9,0,0,1-1,.3,1.2,1.2,0,0,1-.9-.3,1.1,1.1,0,0,1-.5-.9,1.1,1.1,0,0,1,.5-1,1.2,1.2,0,0,1,.9-.3h.9v-.2a.6.6,0,0,0-.7-.7l-.5.2a.5.5,0,0,0-.2.4h-.7a1.3,1.3,0,0,1,.4-.9,1.7,1.7,0,0,1,1-.3c1,0,1.4.5,1.4,1.3v1.8C173,37.7,173.1,38,173.1,38.3Zm-.8-1.8h-.4c-.8,0-1.1.2-1.1.7s0,.3.2.4a.5.5,0,0,0,.4.2C172,37.8,172.3,37.3,172.3,36.5Z" transform="translate(0 0)" fill="#fff"/><path d="M176.9,38.3h-.7V35.7c0-.5-.3-.7-.8-.7a.6.6,0,0,0-.6.3.8.8,0,0,0-.3.7v2.3h-.7V35.4a4.1,4.1,0,0,0-.1-1h.8v.3a1.3,1.3,0,0,1,1-.4,1.1,1.1,0,0,1,1.2.7,2,2,0,0,1,.2.9Z" transform="translate(0 0)" fill="#fff"/><path d="M179.8,35.1h-.9v2.2a.3.3,0,0,0,.3.3h.5v.7h-.6c-.6,0-.9-.3-.9-1V35.1h-.9v-.7h.9v-.6l.7-.4v1h.9Z" transform="translate(0 0)" fill="#fff"/><path d="M183.8,34.4l-2,4.8H181l.6-1L180,34.4h.8l1.1,2.9,1.2-2.9Z" transform="translate(0 0)" fill="#fff"/><path d="M71.9,7.2h3.6v3H71.9V9.4H58v.8H54.4v-3h8.8V6.4h3.6v.8ZM55,25.6V19.2H74.9v6.4a1.9,1.9,0,0,1-2.1,2.1H55V25.6Zm.1-9.2V13.2H74.8v3.1c0,1.5-.7,2.2-2.1,2.2H55.1V16.4Zm19.5-5.5v1.5H55.3V10.9ZM63.2,22.4v-1H58.6v1Zm-4.6,2.1v1.1h4.6V24.5Zm12-8.1c.4,0,.6-.2.6-.5v-.6H58.7v1.1Zm.7,6v-1H66.8v1Zm-4.5,2.1v1.1h3.9a.5.5,0,0,0,.6-.6v-.5Z" transform="translate(0 0)" fill="#474747"/><path d="M80.3,25.6a1.9,1.9,0,0,1-2.1,2.1H77l-.5-2.9h.1a.5.5,0,0,0,.6-.6V6.8h7.5V25.6a1.9,1.9,0,0,1-2.1,2.1H81.3l-.5-2.9h.3c.3,0,.5-.2.5-.6V21.5H80.3Zm1.3-13V9.7H80.3v2.9Zm0,6V15.5H80.3v3.1Zm15.6,7a1.9,1.9,0,0,1-2.1,2.1H92.4L92,24.9h1.1c.4,0,.5-.2.5-.5V22H92l-1.2,4.1a2,2,0,0,1-2.2,1.6H86.1l-.5-2.8h1.5a.8.8,0,0,0,.8-.6l.7-2.3H85.9V19.4h-.4L85,17h.7a.7.7,0,0,0,.7-.6l.2-.7H85.5V12.9h2l.7-1.8h-.6a.9.9,0,0,1-.8.5H85.7l-.5-2.4h.3a.4.4,0,0,0,.4-.4l.4-1.5h2.2l-.3,1.2H89l.8-2.1h3.4l-.7,2.1h2.3l-.3-1.2h2.2l.4,1.2c0,.4.1.5.3.5h.4v2.4H96.3c-.4,0-.7-.1-.8-.3h-.2l.5,1.8h2v2.8H96.6l.2.8a.6.6,0,0,0,.7.5h.3v2.4h-.6Zm-3.9-9.9H90L89.3,18a2.4,2.4,0,0,1-.8,1.1h1l.5-1.5h3.4l-.5,1.5h1.9a2.8,2.8,0,0,1-.9-1.4ZM92,11.1h-.4L91,12.9h1.5Z" transform="translate(0 0)" fill="#474747"/><path d="M104.4,19.3l-1.2,6.5a2.1,2.1,0,0,1-2.3,1.9H99.2l-.6-2.9h.8a.7.7,0,0,0,.5-.7l.9-4.8ZM102.9,8.4c.1.4.3.5.7.5h.7v3h-2.5c-1.1,0-1.8-.7-2.2-2l-.7-3.2h3.5Zm.2,6c.1.4.3.5.7.5h.5v3H102a2.2,2.2,0,0,1-2.2-2L99,12.8h3.6Zm2.1-2.5-.5-2.8h.3c.7,0,1.1-.2,1.3-.6l.9-2.1h3.7l-.6,1.2H120v2.8H109.1a2.8,2.8,0,0,1-1.2,1.2h11.5v2.6H105.9V11.9Zm8.1,6.4h-7.8V15.4h14v2.5h0l-8.3,5.9c-.7.6-.3,1,.9,1h8v2.9H107.6a2.1,2.1,0,0,1-2.3-1.5,2.3,2.3,0,0,1,.4-2.4Z" transform="translate(0 0)" fill="#474747"/><path d="M121,26.5V23.7h8.9V22.5h-8.3v-11h8.3V10.3h-8.7V7.5h8.7V6.4h3.7V7.5h8.6v2.8h-8.6v1.2h8.2v8.8c0,1.5-.7,2.2-2.1,2.2h-6.1v1.2h8.7v2.8h-8.7v1.2h-3.7V26.5Zm8.9-12.3h-4.7v1.5h4.7Zm0,4.1h-4.7v1.4h4.7Zm3.7-2.6h4.6V14.2h-4.6Zm0,4h4c.4,0,.6-.2.6-.5v-.9h-4.6Z" transform="translate(0 0)" fill="#474747"/><path d="M143.6,15.8l-.5-2.9h.3a.8.8,0,0,0,.8-.7l1.5-5.7h3.6l-1.9,7.3h.8V27.7h-3.7V15.8Zm10.5,4.5-.7,5a2.1,2.1,0,0,1-2.4,1.8h-1.4l-.6-3h.8a.5.5,0,0,0,.5-.5l.5-3.3Zm-4.6-1V16.5H155V15h-4.6V6.8h13.2v6a1.9,1.9,0,0,1-2.1,2.2h-2.8v1.5h5.7v2.8h-5.7v8.4H155V19.3Zm10-7.2a.5.5,0,0,0,.5-.5V9.7h-6v2.4Zm3.9,11.5c.1.4.4.5.8.5h.1v3h-1.9c-1.1,0-1.8-.7-2.2-2l-.6-4.8h3.5Z" transform="translate(0 0)" fill="#474747"/><path d="M166,15.4l-.5-2.9h0a.7.7,0,0,0,.8-.6l1.2-5.4h3.6l-1.6,6.8h.6V27.7h-3.6V15.4Zm7.4-6V25.3H171V9.4Zm9.2,3.6.9.8a2.1,2.1,0,0,0,1.4.4h1.9v2.6h-2.7a4.1,4.1,0,0,1-2.5-.8l-1.1-1-.8.8a2.6,2.6,0,0,1-2.3,1h-2.9l-.5-2.6h2a1.2,1.2,0,0,0,.9-.3l1.3-1.1-1.3-1.1a2.1,2.1,0,0,1-1.2.3h-1.2L174,9.2h.2a.8.8,0,0,0,.8-.6l.6-2.2h3.5l-.3,1.1h8v2.7h-1.4Zm-.6,3.9-1.8,2.5a2.9,2.9,0,0,1-2.3.9h-3l-.5-2.1h2.7a.8.8,0,0,0,.7-.3l.8-1Zm3.4,1.9L182.2,23a2.9,2.9,0,0,1-2.3.9H175l-.5-2.3h4.4a.8.8,0,0,0,.8-.4l2-2.4Zm1.4,4.1-2.7,3.9a3.2,3.2,0,0,1-2.3.9H175l-.5-2.4h6.2c.4,0,.7-.1.8-.3l1.7-2.1Zm-8.9-12.7v.2a2,2,0,0,1-.4.8h2.7l1.1-1Z" transform="translate(0 0)" fill="#474747"/></svg>